<?xml version="1.0" encoding="utf-8"?>
<!-- Generator: Adobe Illustrator 23.0.0, SVG Export Plug-In . SVG Version: 6.00 Build 0)  -->
<svg version="1.1" id="图层_1" xmlns="http://www.w3.org/2000/svg" xmlns:xlink="http://www.w3.org/1999/xlink" x="0px" y="0px"
	 viewBox="0 0 73 76" style="enable-background:new 0 0 73 76;" xml:space="preserve">
<path d="M37.56,9.53h-2.31V0.49h2.31V9.53z M37.56,66.49h-2.31v9.04h2.31V66.49z M-0.11,36.85v2.31h9.04v-2.31H-0.11z M63.89,36.85
	v2.31h9.04v-2.31H63.89z M17.07,7.81l-1,0.58l3.19,5.53l1-0.58L17.07,7.81z M4.69,22.76l-0.58,1l5.53,3.19l0.58-1L4.69,22.76z
	 M4.11,54.96l0.58,1l5.53-3.19l-0.58-1L4.11,54.96z M16.07,70.34l1,0.58l3.19-5.53l-1-0.58L16.07,70.34z M56.26,71.91l1-0.58
	l-3.19-5.53l-1,0.58L56.26,71.91z M68.64,55.96l0.58-1l-5.53-3.19l-0.58,1L68.64,55.96z M69.22,23.76l-0.58-1l-5.53,3.19l0.58,1
	L69.22,23.76z M57.26,8.38l-1-0.58l-3.19,5.53l1,0.58L57.26,8.38z"/>
</svg>
